# xmcd
#
# Track frame offsets:
#	150
#	18192
#	35367
#	61035
#	79700
#	95370
#	115172
#	134975
#	154040
#	172170
#	186862
#	208955
#
# Disc length: 3043 seconds
#
# Revision: 0
# Processed by: cddbd v1.5.2PL0 Copyright (c) Steve Scherf et al.
# Submitted via: EasyCDDAExtractor 12.0.1.1
#
DISCID=a10be10c
DTITLE=Willie Clayton - Feel's Like Love
DYEAR=1992
DGENRE=R&B
TTITLE0=Let Me Love You
TTITLE1=Feels Like Love
TTITLE2=In The Mood
TTITLE3=Leavin' Me
TTITLE4=I'll Take Care Of You
TTITLE5=Happy
TTITLE6=Dear Lover
TTITLE7=Show Me
TTITLE8=A Woman Needs To Be Loved
TTITLE9=Stone Good Lover
TTITLE10=Do To You
TTITLE11=How Do You Love Two
EXTD=
EXTT0=
EXTT1=
EXTT2=
EXTT3=
EXTT4=
EXTT5=
EXTT6=
EXTT7=
EXTT8=
EXTT9=
EXTT10=
EXTT11=
PLAYORDER=
